<svg xmlns="http://www.w3.org/2000/svg" width="148.451" height="148.417" viewBox="0 0 148.451 148.417">
  <path id="Icon_awesome-instagram" data-name="Icon awesome-instagram" d="M74.237,38.394a38.052,38.052,0,1,0,38.052,38.052A37.992,37.992,0,0,0,74.237,38.394Zm0,62.791A24.739,24.739,0,1,1,98.976,76.446a24.784,24.784,0,0,1-24.739,24.739Zm48.485-64.348a8.876,8.876,0,1,1-8.876-8.876A8.855,8.855,0,0,1,122.721,36.838Zm25.2,9.008c-.563-11.889-3.279-22.421-11.989-31.1-8.677-8.677-19.208-11.393-31.1-11.989-12.254-.7-48.981-.7-61.235,0-11.856.563-22.388,3.279-31.1,11.956S1.112,33.923.516,45.812c-.7,12.254-.7,48.981,0,61.235.563,11.889,3.279,22.421,11.989,31.1s19.208,11.393,31.1,11.989c12.254.7,48.981.7,61.235,0,11.889-.563,22.421-3.279,31.1-11.989,8.677-8.677,11.393-19.208,11.989-31.1.7-12.254.7-48.948,0-61.2Zm-15.83,74.35A25.046,25.046,0,0,1,117.985,134.3c-9.77,3.875-32.952,2.981-43.749,2.981s-34.012.861-43.749-2.981A25.046,25.046,0,0,1,16.38,120.2C12.5,110.425,13.4,87.243,13.4,76.446S12.538,42.434,16.38,32.7A25.046,25.046,0,0,1,30.488,18.59c9.77-3.875,32.952-2.981,43.749-2.981s34.012-.861,43.749,2.981A25.046,25.046,0,0,1,132.094,32.7c3.875,9.77,2.981,32.952,2.981,43.749S135.968,110.459,132.094,120.2Z" transform="translate(0.006 -2.238)" fill="#008cff"/>
</svg>
