<svg xmlns="http://www.w3.org/2000/svg" width="182.869" height="123.441" viewBox="0 0 182.869 123.441">
  <path id="Icon_zocial-email" data-name="Icon zocial-email" d="M.072,116.576V15q0-.176.529-3.351l59.781,51.14L.777,120.1a14.945,14.945,0,0,1-.705-3.527ZM8.008,4.6a7.6,7.6,0,0,1,3-.529h161a9.985,9.985,0,0,1,3.174.529L115.225,55.913l-7.936,6.348L91.595,75.135,75.9,62.262l-7.936-6.348ZM8.184,126.98,68.317,69.316,91.595,88.184l23.277-18.869,60.134,57.665a8.467,8.467,0,0,1-3,.529h-161a7.986,7.986,0,0,1-2.822-.529ZM122.808,62.791l59.6-51.14A10.525,10.525,0,0,1,182.941,15V116.576a13.516,13.516,0,0,1-.529,3.527Z" transform="translate(-0.072 -4.068)" fill="#008cff"/>
</svg>
